<svg xmlns="http://www.w3.org/2000/svg" xmlns:xlink="http://www.w3.org/1999/xlink" width="500" zoomAndPan="magnify" viewBox="0 0 375 374.999991" height="500" preserveAspectRatio="xMidYMid meet" version="1.0"><defs><clipPath id="ada1928a2f"><path d="M 40.125 37.53125 L 187.5 37.53125 L 187.5 187.46875 L 40.125 187.46875 Z M 40.125 37.53125 " clip-rule="nonzero"/></clipPath><clipPath id="30d512d9e8"><path d="M 187.5 187.53125 L 335.25 187.53125 L 335.25 337.46875 L 187.5 337.46875 Z M 187.5 187.53125 " clip-rule="nonzero"/></clipPath></defs><path fill="#ffffff" d="M 170.976562 43.917969 L 95.628906 112.5 L 170.976562 181.082031 L 124.601562 181.082031 L 49.253906 112.5 L 124.601562 43.917969 L 170.976562 43.917969 " fill-opacity="1" fill-rule="nonzero"/><g clip-path="url(#ada1928a2f)"><path fill="#000000" d="M 122.117188 187.472656 L 187.5 187.472656 L 163.089844 165.25 L 105.132812 112.5 L 163.089844 59.75 L 187.5 37.53125 L 122.117188 37.53125 L 118.449219 40.871094 L 50.121094 103.0625 L 39.75 112.5 L 50.121094 121.941406 L 118.449219 184.128906 Z M 127.085938 174.691406 L 58.757812 112.5 L 127.085938 50.308594 L 154.453125 50.308594 L 86.125 112.5 L 154.453125 174.691406 L 127.085938 174.691406 " fill-opacity="1" fill-rule="nonzero"/></g><path fill="#ffffff" d="M 204.023438 331.082031 L 279.371094 262.5 L 204.023438 193.917969 L 250.398438 193.917969 L 325.746094 262.5 L 250.398438 331.082031 L 204.023438 331.082031 " fill-opacity="1" fill-rule="nonzero"/><g clip-path="url(#30d512d9e8)"><path fill="#000000" d="M 252.882812 187.527344 L 187.5 187.527344 L 211.910156 209.75 L 269.867188 262.5 L 211.910156 315.25 L 187.5 337.46875 L 252.882812 337.46875 L 256.550781 334.128906 L 324.878906 271.9375 L 335.25 262.5 L 324.878906 253.058594 L 256.550781 190.871094 Z M 247.914062 200.308594 L 316.242188 262.5 L 247.914062 324.691406 L 220.546875 324.691406 L 288.875 262.5 L 220.546875 200.308594 L 247.914062 200.308594 " fill-opacity="1" fill-rule="nonzero"/></g></svg>